<svg id="Capa_1" enable-background="new 0 0 512.036 512.036" height="512" viewBox="0 0 512.036 512.036" width="512" xmlns="http://www.w3.org/2000/svg"><g><g><path d="m311.357 272.926h-55.321v30l61.825 30.055z" fill="#5eb16a"/><path d="m50.536 334.844v155.821l29.92 11.399 1.002-.358 6.148-83.431-6.148-83.431z" fill="#6ae1db"/><path d="m112.38 334.844h-30.922v166.862l30.922-11.041 12.383-69.688z" fill="#21c8c7"/><path d="m112.262 334.844v155.821l29.92 11.399 1.002-.358 6.147-83.431-6.147-83.431z" fill="#6ae1db"/><path d="m174.106 334.844h-30.922v166.862l30.922-11.041 9.314-72.211z" fill="#21c8c7"/><path d="m223.46 399.764-8.185-96.838h-41.169v136.403l46.009 25.941z" fill="#fdd752"/><path d="m174.106 439.329v44.459l39.835 13.23 1.334-.415 8.185-32.465-8.185-24.809z" fill="#f8bd3f"/><path d="m256.443 302.926h-41.168v150.717l41.168-14.314 11.823-62.406z" fill="#f8bd3f"/><path d="m215.275 439.329v57.274l41.168-12.815 11.823-20.984-11.823-23.475z" fill="#fd9326"/><path d="m366.678 272.926h-55.321v46.584l55.321-16.584 7.715-17.307z" fill="#009b5c"/><path d="m421.999 272.926h-55.321v30l61.825 30.055z" fill="#5eb16a"/><g><path d="m477.32 272.926h-55.321v46.584l55.321-16.584z" fill="#009b5c"/></g><g fill="#fdd752"><path d="m235.377 129.753-5.153-91.375h-25.917v128.708l28.965 24.477z"/><path d="m287.211 129.753-5.153-91.375h-25.952v128.708l28.999 27.021z"/><path d="m339.045 129.753-5.153-91.375h-25.917v128.708l28.964 27.021z"/></g><g><path d="m204.307 167.086v41.95l25.077 12.484.84-.392 5.153-30.633-5.153-23.409z" fill="#f8bd3f"/></g><g><path d="m256.106 38.378h-25.882v142.214l25.882-13.506z" fill="#f8bd3f"/><path d="m230.224 167.086v54.042l25.882-12.092v-41.95z" fill="#fd9326"/></g><g><path d="m256.106 167.086v41.95l25.112 12.484.84-.392 7.162-32.801-7.162-21.241z" fill="#f8bd3f"/></g><g><path d="m307.975 38.378h-25.917v142.214l25.917-13.506z" fill="#f8bd3f"/><path d="m282.058 167.086v54.042l25.917-12.092v-41.95z" fill="#fd9326"/></g><g><path d="m307.975 167.086v41.95l25.077 12.484.84-.392 2-35.464-2-18.578z" fill="#f8bd3f"/></g><g><path d="m359.809 38.378h-25.917v145.516l25.917-16.808z" fill="#f8bd3f"/><path d="m333.892 167.086v54.042l25.917-12.092v-41.95z" fill="#fd9326"/></g><g><path d="m0 .018v206.403l54.761 15.099 1.834-.474 11.251-110.514-11.251-110.514z" fill="#fd465f"/></g><path d="m113.189.018h-56.594v221.028l56.594-14.625z" fill="#ce0c51"/><g><path d="m113.216 98.098v115.009l44.07 8.413 1.476-.264 9.055-61.579-9.055-61.579z" fill="#89ce6d"/></g><path d="m204.307 98.098h-45.545v123.158l45.545-8.149z" fill="#5eb16a"/><g><path d="m41.595 40.117v28.422h15l7.5-14.211-7.5-14.211z" fill="#fd6c5f"/><path d="m56.595 40.117h15v28.422h-15z" fill="#fd465f"/></g><g><g><path d="m401.87-7.18h30v239.975h-30z" fill="#6ae1db" transform="matrix(.881 -.473 .473 .881 -3.727 210.808)"/></g></g><g><path d="m.036 205.908v30h256.07l12.16-14.388-12.16-15.612z" fill="#b1532b"/></g><path d="m256.106 205.908h255.93v30h-255.93z" fill="#983424"/></g><path d="m256.036 302.926v179.549l53.528 15.328 1.793-.481 10.998-165.652-10.998-28.744z" fill="#89ce6d"/><path d="m311.357 302.926v194.396l55.321-14.847 13.541-82.11-13.541-97.439z" fill="#5eb16a"/><g><path d="m366.678 302.926v179.549l53.528 15.328 1.793-.481 10.998-165.652-10.998-28.744z" fill="#89ce6d"/></g><path d="m421.999 302.926v194.396l55.321-14.847v-179.549z" fill="#5eb16a"/><path d="m.036 512.018h256l15.128-15.415-15.128-14.585h-256z" fill="#b1532b"/><path d="m256.036 482.018h256v30h-256z" fill="#983424"/></g></svg>